<svg width="24" height="24" viewBox="0 0 24 24" fill="none" xmlns="http://www.w3.org/2000/svg">
<path fill-rule="evenodd" clip-rule="evenodd" d="M11.9501 0.0179515C11.928 0.106343 11.7915 0.757224 11.6468 1.46435C10.8362 5.42492 10.0314 7.37223 8.64732 8.72214C7.25382 10.0813 5.37247 10.8475 1.46378 11.6474C0.75665 11.7921 0.105769 11.9283 0.0173779 11.9499C-0.0902987 11.9763 0.301966 12.0794 1.20664 12.2625C4.53947 12.9371 6.37403 13.5644 7.76366 14.5046C8.31137 14.8752 9.1319 15.713 9.53053 16.3086C10.4141 17.6286 11.1101 19.7075 11.7168 22.839C11.8299 23.4223 11.9379 23.943 11.9569 23.9961C11.9758 24.0491 12.0995 23.5573 12.2316 22.9032C13.0825 18.691 13.8864 16.6861 15.286 15.2866C16.685 13.8875 18.6883 13.084 22.9027 12.2313C23.5568 12.099 24.0485 11.975 23.9955 11.9558C23.9425 11.9366 23.4218 11.8284 22.8384 11.7154C18.7789 10.929 16.7055 10.0929 15.2814 8.66808C13.8712 7.25703 13.1036 5.35935 12.2635 1.20722C12.0785 0.293346 11.9773 -0.0908179 11.9501 0.0179515Z" fill="#F3EFEF"/>
</svg>
