<svg width="78" height="31" viewBox="0 0 78 31" fill="none" xmlns="http://www.w3.org/2000/svg">
<path opacity="0.05" d="M5.19983 0H0.000118256L13.566 15.4325L0.000118256 29.865H5.19983L18.6991 15.4325L5.19983 0Z" fill="#FF4128"/>
<path opacity="0.1" d="M14.5632 0H9.36352L22.9294 15.4325L9.36352 29.865H14.5632L28.0625 15.4325L14.5632 0Z" fill="#FF4128"/>
<path opacity="0.2" d="M23.9265 0H18.7268L32.2927 15.4325L18.7268 29.865H23.9265L37.4258 15.4325L23.9265 0Z" fill="#FF4128"/>
<path opacity="0.4" d="M33.2039 0H28.0041L41.5701 15.4325L28.0041 29.865H33.2039L46.7031 15.4325L33.2039 0Z" fill="#FF4128"/>
<path opacity="0.6" d="M42.571 0H37.3713L50.9373 15.4325L37.3713 29.865H42.571L56.0703 15.4325L42.571 0Z" fill="#FF4128"/>
<path d="M23.1729 14.0557C24.1572 14.2314 24.9922 14.75 25.6777 15.6113C26.3633 16.4727 26.7061 17.4482 26.7061 18.5381C26.7061 19.4697 26.46 20.3135 25.9678 21.0693C25.4932 21.8076 24.7988 22.3965 23.8848 22.8359C22.9707 23.2578 21.9072 23.4688 20.6943 23.4688H13.3643V5.14356H20.3516C21.5996 5.14356 22.6719 5.35449 23.5684 5.77637C24.4648 6.19824 25.1416 6.76953 25.5986 7.49024C26.0557 8.19336 26.2842 8.98438 26.2842 9.86328C26.2842 10.918 26.0029 11.7969 25.4404 12.5C24.8779 13.2031 24.1221 13.7217 23.1729 14.0557ZM16.3701 12.8428H20.0879C21.0723 12.8428 21.8369 12.623 22.3818 12.1836C22.9443 11.7266 23.2256 11.0762 23.2256 10.2324C23.2256 9.40625 22.9443 8.76465 22.3818 8.30762C21.8369 7.83301 21.0723 7.5957 20.0879 7.5957H16.3701V12.8428ZM20.4307 21.0166C21.4502 21.0166 22.25 20.7705 22.8301 20.2783C23.4102 19.7861 23.7002 19.1006 23.7002 18.2217C23.7002 17.3252 23.3926 16.6133 22.7773 16.0859C22.1621 15.5586 21.3447 15.2949 20.3252 15.2949H16.3701V21.0166H20.4307ZM28.9705 16.1387C28.9705 14.6797 29.2694 13.3877 29.867 12.2627C30.4823 11.1377 31.3084 10.2676 32.3455 9.65234C33.4002 9.01953 34.5604 8.70313 35.826 8.70313C36.9686 8.70313 37.9618 8.93164 38.8055 9.38867C39.6668 9.82813 40.3524 10.3818 40.8621 11.0498V8.94043H43.8944V23.4688H40.8621V21.3066C40.3524 21.9922 39.658 22.5635 38.7791 23.0205C37.9002 23.4775 36.8983 23.7061 35.7733 23.7061C34.5252 23.7061 33.3826 23.3896 32.3455 22.7568C31.3084 22.1064 30.4823 21.21 29.867 20.0674C29.2694 18.9072 28.9705 17.5977 28.9705 16.1387ZM40.8621 16.1914C40.8621 15.1895 40.6512 14.3193 40.2293 13.5811C39.825 12.8428 39.2889 12.2803 38.6209 11.8936C37.953 11.5068 37.2323 11.3135 36.4588 11.3135C35.6854 11.3135 34.9647 11.5068 34.2967 11.8936C33.6287 12.2627 33.0838 12.8164 32.6619 13.5547C32.2577 14.2754 32.0555 15.1367 32.0555 16.1387C32.0555 17.1406 32.2577 18.0195 32.6619 18.7754C33.0838 19.5313 33.6287 20.1113 34.2967 20.5156C34.9823 20.9023 35.703 21.0957 36.4588 21.0957C37.2323 21.0957 37.953 20.9023 38.6209 20.5156C39.2889 20.1289 39.825 19.5664 40.2293 18.8281C40.6512 18.0723 40.8621 17.1934 40.8621 16.1914ZM50.8483 11.0498C51.2878 10.3115 51.8678 9.74024 52.5885 9.33594C53.3268 8.91406 54.1969 8.70313 55.1989 8.70313V11.8145H54.4342C53.2565 11.8145 52.36 12.1133 51.7448 12.7109C51.1471 13.3086 50.8483 14.3457 50.8483 15.8223V23.4688H47.8424V8.94043H50.8483V11.0498ZM56.9599 16.1387C56.9599 14.6797 57.2588 13.3877 57.8564 12.2627C58.4716 11.1377 59.2978 10.2676 60.3349 9.65234C61.3896 9.01953 62.5586 8.70313 63.8418 8.70313C64.9668 8.70313 65.9599 8.93164 66.8212 9.38867C67.7002 9.8457 68.3769 10.3994 68.8515 11.0498V8.94043H71.8837V30.377H68.8515V21.3594C68.3769 22.0098 67.6914 22.5635 66.7949 23.0205C65.8984 23.4775 64.8789 23.7061 63.7363 23.7061C62.4882 23.7061 61.3457 23.3896 60.3086 22.7568C59.289 22.1064 58.4716 21.21 57.8564 20.0674C57.2588 18.9072 56.9599 17.5977 56.9599 16.1387ZM68.8515 16.1914C68.8515 15.1895 68.6406 14.3193 68.2187 13.5811C67.8144 12.8428 67.2783 12.2803 66.6103 11.8936C65.9423 11.5068 65.2216 11.3135 64.4482 11.3135C63.6748 11.3135 62.9541 11.5068 62.2861 11.8936C61.6181 12.2627 61.0732 12.8164 60.6513 13.5547C60.247 14.2754 60.0449 15.1367 60.0449 16.1387C60.0449 17.1406 60.247 18.0195 60.6513 18.7754C61.0732 19.5313 61.6181 20.1113 62.2861 20.5156C62.9716 20.9023 63.6923 21.0957 64.4482 21.0957C65.2216 21.0957 65.9423 20.9023 66.6103 20.5156C67.2783 20.1289 67.8144 19.5664 68.2187 18.8281C68.6406 18.0723 68.8515 17.1934 68.8515 16.1914Z" fill="white"/>
</svg>
