<svg width="142" height="25" viewBox="0 0 142 25" fill="none" xmlns="http://www.w3.org/2000/svg">
<g clip-path="url(#clip0_1_7985)">
<g clip-path="url(#clip1_1_7985)">
<mask id="mask0_1_7985" style="mask-type:luminance" maskUnits="userSpaceOnUse" x="-2" y="0" width="144" height="25">
<path d="M141.186 0.750153H-1.41003V24.6482H141.186V0.750153Z" fill="white"/>
</mask>
<g mask="url(#mask0_1_7985)">
<path fill-rule="evenodd" clip-rule="evenodd" d="M36.6957 0.839996L24.5365 24.6096H13.1158L18.2043 14.7585H17.9761C13.778 20.208 7.51451 23.7955 -1.41003 24.6096V14.8949C-1.41003 14.8949 4.29923 14.5576 7.65552 11.0289H-1.41003V0.840184H8.77868V9.22027L9.00735 9.21933L13.1708 0.840184H20.8763V9.16713L21.105 9.16674L25.4246 0.839996H36.6957Z" fill="white"/>
<path d="M103 21.9856H106.281V3.15054H103V21.9856Z" fill="white"/>
<path fill-rule="evenodd" clip-rule="evenodd" d="M84.9086 21.7949C85.6218 22.0914 86.3467 22.2395 87.0841 22.2395C88.3022 22.2395 89.3919 21.9431 90.3533 21.3502C91.315 20.7572 92.0602 19.9398 92.5889 18.8981C93.1179 17.8484 93.3825 16.6585 93.3825 15.3283C93.3825 13.998 93.1098 12.8081 92.5651 11.7584C92.02 10.7086 91.2627 9.89529 90.2932 9.31836C89.3236 8.73339 88.2218 8.44491 86.9877 8.45291C86.2027 8.45291 85.4493 8.60515 84.7283 8.90967C84.0069 9.21419 83.4061 9.64688 82.925 10.2078C82.8879 10.2505 82.852 10.2936 82.8169 10.3372V3.16422H79.5236V21.9872H82.7931L82.7865 20.2288C82.8711 20.3325 82.9613 20.4337 83.0572 20.5327C83.5781 21.0697 84.1954 21.4904 84.9086 21.7949ZM88.2741 18.7539C87.7372 19.0823 87.1239 19.2467 86.4349 19.2467C85.7537 19.2467 85.1286 19.0784 84.5598 18.7418C83.9909 18.3972 83.5383 17.9285 83.2016 17.3356C82.8731 16.7426 82.7088 16.0695 82.7088 15.3162C82.7006 14.563 82.861 13.8899 83.1895 13.2969C83.5262 12.6959 83.9788 12.2311 84.5477 11.9026C85.1169 11.566 85.7459 11.4018 86.4349 11.4098C87.1239 11.4018 87.7372 11.562 88.2741 11.8906C88.8188 12.2111 89.2355 12.6718 89.5242 13.2728C89.8203 13.8658 89.9686 14.547 89.9686 15.3162C89.9686 16.0854 89.8203 16.7666 89.5242 17.3596C89.2355 17.9526 88.8188 18.4173 88.2741 18.7539Z" fill="white"/>
<path d="M41.4493 4.29312H45.1996L48.5542 16.5445L52.123 4.29312H55.2478L59.1186 16.2986L62.3397 4.29312H65.7775L60.705 21.9863H57.4717L53.5361 10.2578L49.9233 21.9863H46.6537L41.4493 4.29312Z" fill="white"/>
<path fill-rule="evenodd" clip-rule="evenodd" d="M71.3173 22.2998C70.0111 22.3077 68.8332 22.0192 67.7832 21.4343C66.7419 20.8414 65.9202 20.02 65.3194 18.9703C64.7263 17.9205 64.4298 16.7226 64.4298 15.3764C64.4298 14.0703 64.7345 12.8883 65.3436 11.8305C65.9522 10.7728 66.7778 9.94745 67.8195 9.35449C68.8613 8.76148 70.0232 8.465 71.3052 8.465C72.7477 8.465 74.0098 8.78555 75.0914 9.42659C76.1811 10.0676 76.9946 10.9771 77.5314 12.1551C78.0765 13.325 78.2727 14.6672 78.1206 16.1816H67.8246C67.8535 16.785 68.0037 17.334 68.2764 17.8284C68.5807 18.3733 69.0056 18.798 69.5503 19.1025C70.0949 19.407 70.7044 19.5592 71.3774 19.5592C71.8901 19.5513 72.3669 19.4631 72.8077 19.2949C73.2482 19.1186 73.6208 18.8821 73.9256 18.5857C74.2381 18.2891 74.4585 17.9526 74.5865 17.576H78.0242C77.8159 18.4975 77.3992 19.3189 76.7741 20.0401C76.1491 20.7532 75.3637 21.3101 74.4183 21.7108C73.4726 22.1114 72.439 22.3077 71.3173 22.2998ZM68.2881 12.8762C68.0962 13.2111 67.9631 13.5717 67.889 13.9581H74.7141C74.6645 13.47 74.5139 13.0252 74.2619 12.6238C73.9735 12.1511 73.581 11.7865 73.084 11.5301C72.5873 11.2656 72.0262 11.1334 71.4012 11.1334C70.7364 11.1334 70.1312 11.2856 69.5866 11.5901C69.0415 11.8946 68.6088 12.3233 68.2881 12.8762Z" fill="white"/>
<path d="M95.7992 8.74078C95.7992 7.66701 96.0438 6.71346 96.5323 5.88007C97.0212 5.03869 97.7063 4.38562 98.5876 3.92086C99.4772 3.44807 100.515 3.20368 101.701 3.18765V6.10844C101.148 6.11647 100.675 6.23266 100.283 6.45704C99.8978 6.67339 99.6013 6.98989 99.393 7.40658C99.2014 7.79019 99.0976 8.23493 99.0824 8.74078H101.629V11.5174H99.0804V21.9866H95.7992V11.5174H93.6837V8.74078H95.7992Z" fill="white"/>
<path fill-rule="evenodd" clip-rule="evenodd" d="M114.624 22.2742C113.286 22.2742 112.087 21.9816 111.03 21.3966C109.98 20.8037 109.155 19.9862 108.554 18.9446C107.961 17.8949 107.664 16.705 107.664 15.3747C107.664 14.0366 107.961 12.8426 108.554 11.7928C109.155 10.7351 109.98 9.91373 111.03 9.3288C112.087 8.74383 113.286 8.45132 114.624 8.45132C115.97 8.45132 117.172 8.74383 118.23 9.3288C119.295 9.91373 120.125 10.7311 120.718 11.7808C121.311 12.8305 121.611 14.0285 121.619 15.3747C121.611 16.705 121.311 17.8949 120.718 18.9446C120.133 19.9862 119.307 20.8037 118.242 21.3966C117.176 21.9816 115.97 22.2742 114.624 22.2742ZM114.624 19.2572C115.329 19.2572 115.954 19.0969 116.499 18.7763C117.044 18.4478 117.464 17.991 117.761 17.4061C118.057 16.8131 118.206 16.136 118.206 15.3747C118.206 14.6055 118.057 13.9244 117.761 13.3314C117.464 12.7384 117.044 12.2817 116.499 11.9611C115.954 11.6326 115.329 11.4683 114.624 11.4683C113.927 11.4683 113.306 11.6326 112.761 11.9611C112.224 12.2817 111.807 12.7384 111.511 13.3314C111.214 13.9244 111.07 14.6055 111.078 15.3747C111.078 16.136 111.226 16.8131 111.522 17.4061C111.827 17.991 112.244 18.4478 112.773 18.7763C113.309 19.0969 113.927 19.2572 114.624 19.2572Z" fill="white"/>
<path d="M125.162 8.74039H121.508L125.463 21.9862H128.66L131.261 13.5261L134.069 21.9862H137.218L141.185 8.74039H137.879L135.63 16.985L133.144 8.74039H129.946L127.472 17.1667L125.162 8.74039Z" fill="white"/>
</g>
</g>
</g>
<defs>
<clipPath id="clip0_1_7985">
<rect width="142.8" height="24.19" fill="white" transform="translate(-1.41003 0.750153)"/>
</clipPath>
<clipPath id="clip1_1_7985">
<rect width="142.799" height="24.19" fill="white" transform="translate(-1.41003 0.750153)"/>
</clipPath>
</defs>
</svg>
